<svg version="1.1" xmlns="http://www.w3.org/2000/svg" xmlns:xlink="http://www.w3.org/1999/xlink" width="500" height="500"><g data-paper-data="{&quot;description&quot;:&quot;Logo for Tamang Nabindra\n========================\n\nThis logo was generated by MarkMaker at http://emblemmatic.org/markmaker/ and may be composed of elements designed by others.\n\nThe font is Dosis ExtraBold designed by Pablo Impallari and released under the OFL license via Google Fonts: https://www.google.com/fonts/specimen/Dosis. The font includes this copyright statement: Copyright (c) 2011, Edgar Tolentino, Pablo Impallari, Igino Marini (impallari.com impallari@gmail.com), with Reserved Font Name Dosis.\n\nMarkMaker uses semantic data from the Princeton University WordNet database http://wordnet.princeton.edu and font descriptions from Google Fonts https://www.google.com/fonts.&quot;}" fill="none" fill-rule="nonzero" stroke="none" stroke-width="none" stroke-linecap="butt" stroke-linejoin="miter" stroke-miterlimit="10" stroke-dasharray="" stroke-dashoffset="0" font-family="none" font-weight="none" font-size="none" text-anchor="none" style="mix-blend-mode: normal"><path d="M50,406.34812v-312.69623h400v312.69623z" fill="#495007" stroke-width="0"></path><g data-paper-data="{&quot;elementType&quot;:&quot;logo&quot;}" fill="#ffffff" stroke-width="1"><g data-paper-data="{&quot;elementType&quot;:&quot;text&quot;}"><g data-paper-data="{&quot;baseline&quot;:74.8,&quot;elementType&quot;:&quot;row&quot;}"><g data-paper-data="{&quot;baselineProportion&quot;:0.7710970464135022,&quot;fontSize&quot;:100,&quot;baseline&quot;:73.10000000000001,&quot;elementType&quot;:&quot;word&quot;}"><path d="M83.33333,332.40828c0,-0.86233 0.18479,-1.60917 0.55436,-2.24052c0.36957,-0.63135 0.90853,-0.94702 1.61687,-0.94702h19.95678c0.70834,0 1.2473,0.31567 1.61687,0.94702c0.36957,0.63135 0.55436,1.37819 0.55436,2.24052c0,0.92393 -0.19248,1.70156 -0.57745,2.33291c-0.38497,0.63135 -0.91623,0.94702 -1.59377,0.94702h-6.37508v25.08456c0,0.70834 -0.35417,1.255 -1.06251,1.63997c-0.70834,0.38497 -1.55527,0.57745 -2.54079,0.57745c-0.98552,0 -1.83245,-0.19248 -2.54079,-0.57745c-0.70834,-0.38497 -1.06251,-0.93162 -1.06251,-1.63997v-25.08456h-6.37508c-0.67755,0 -1.2088,-0.31567 -1.59377,-0.94702c-0.38497,-0.63135 -0.57745,-1.40899 -0.57745,-2.33291z" data-paper-data="{&quot;elementType&quot;:&quot;letter&quot;,&quot;baseline&quot;:73.10000000000001,&quot;baselineProportion&quot;:1,&quot;fontSize&quot;:100}"></path><path d="M104.676,357.30806c0,-2.55619 0.93162,-4.35785 2.79487,-5.40496c1.86325,-1.04712 4.53493,-1.57067 8.01505,-1.57067h1.66307v-0.46196c0,-0.92393 -0.27718,-1.72466 -0.83153,-2.40221c-0.55436,-0.67755 -1.43208,-1.01632 -2.63319,-1.01632c-1.47828,0 -2.69478,0.25408 -3.6495,0.76224c-0.95472,0.50816 -1.53988,0.76224 -1.75546,0.76224c-0.73914,0 -1.32429,-0.36187 -1.75546,-1.08561c-0.43117,-0.72374 -0.64675,-1.54757 -0.64675,-2.4715c0,-1.01632 0.85463,-1.88635 2.56389,-2.61009c1.70926,-0.72374 3.48782,-1.08561 5.33567,-1.08561c3.54171,0 6.1826,0.86233 7.92266,2.58699c1.74006,1.72466 2.61009,3.88049 2.61009,6.46748v10.99471c0,0.61595 -0.33107,1.13951 -0.99322,1.57067c-0.66215,0.43117 -1.50138,0.64675 -2.5177,0.64675c-0.89313,0 -1.64767,-0.21558 -2.26362,-0.64675c-0.61595,-0.43117 -0.92393,-0.95472 -0.92393,-1.57067v-1.01632c-2.12503,2.4638 -4.46564,3.6957 -7.02183,3.6957c-1.69386,0 -3.10285,-0.52356 -4.22696,-1.57067c-1.12411,-1.04712 -1.68616,-2.57159 -1.68616,-4.57343M111.88262,356.29174c0,1.2935 0.60055,1.94024 1.80165,1.94024c0.76994,0 1.53988,-0.43117 2.30981,-1.2935c0.76994,-0.86233 1.15491,-1.84785 1.15491,-2.95656v-0.18479h-0.18479c-1.01632,0 -1.85555,0.0462 -2.5177,0.13859c-0.66215,0.09239 -1.255,0.33107 -1.77856,0.71604c-0.52356,0.38497 -0.78534,0.93162 -0.78534,1.63997z" data-paper-data="{&quot;elementType&quot;:&quot;letter&quot;,&quot;baseline&quot;:48.2,&quot;baselineProportion&quot;:0.9796747967479675,&quot;fontSize&quot;:100}"></path><path d="M128.28229,360.77278v-17.60077c0,-0.64675 0.33107,-1.17031 0.99322,-1.57067c0.66215,-0.40037 1.51678,-0.60055 2.56389,-0.60055c0.86233,0 1.60147,0.20018 2.21742,0.60055c0.61595,0.40037 0.92393,0.92393 0.92393,1.57067v1.06251c1.32429,-2.34061 3.35693,-3.51092 6.09791,-3.51092c1.2319,0 2.33291,0.42347 3.30303,1.2704c0.97012,0.84693 1.68616,1.96334 2.14813,3.34923c0.76994,-1.50908 1.77086,-2.65628 3.00276,-3.44162c1.2319,-0.78534 2.54079,-1.178 3.92668,-1.178c2.30981,0 4.28855,0.87773 5.93622,2.63319c1.64767,1.75546 2.4715,4.11147 2.4715,7.06803v10.34796c0,0.55436 -0.35417,1.06251 -1.06251,1.52448c-0.70834,0.46196 -1.55527,0.69294 -2.54079,0.69294c-0.92393,0 -1.74776,-0.23098 -2.4715,-0.69294c-0.72374,-0.46196 -1.08561,-0.97012 -1.08561,-1.52448v-10.34796c0,-1.10871 -0.30798,-1.97104 -0.92393,-2.58699c-0.61595,-0.61595 -1.33969,-0.92393 -2.17122,-0.92393c-0.80074,0 -1.49368,0.30798 -2.07883,0.92393c-0.58515,0.61595 -0.87773,1.47828 -0.87773,2.58699v10.39416c0,0.70834 -0.35417,1.2473 -1.06251,1.61687c-0.70834,0.36957 -1.55527,0.55436 -2.54079,0.55436c-0.92393,0 -1.74776,-0.18479 -2.4715,-0.55436c-0.72374,-0.36957 -1.08561,-0.90853 -1.08561,-1.61687v-10.34796c0,-1.07791 -0.31567,-1.93254 -0.94702,-2.56389c-0.63135,-0.63135 -1.36279,-0.94702 -2.19432,-0.94702c-0.80074,0 -1.48598,0.30028 -2.05573,0.90083c-0.56975,0.60055 -0.85463,1.45518 -0.85463,2.56389v10.34796c0,0.55436 -0.36187,1.06251 -1.08561,1.52448c-0.72374,0.46196 -1.56297,0.69294 -2.5177,0.69294c-1.01632,0 -1.86325,-0.22328 -2.54079,-0.66985c-0.67755,-0.44656 -1.01632,-0.96242 -1.01632,-1.54757z" data-paper-data="{&quot;elementType&quot;:&quot;letter&quot;,&quot;baseline&quot;:48.2,&quot;baselineProportion&quot;:1,&quot;fontSize&quot;:100}"></path><path d="M164.59254,357.30806c0,-2.55619 0.93162,-4.35785 2.79487,-5.40496c1.86325,-1.04712 4.53493,-1.57067 8.01505,-1.57067h1.66307v-0.46196c0,-0.92393 -0.27718,-1.72466 -0.83153,-2.40221c-0.55436,-0.67755 -1.43208,-1.01632 -2.63319,-1.01632c-1.47828,0 -2.69478,0.25408 -3.6495,0.76224c-0.95472,0.50816 -1.53988,0.76224 -1.75546,0.76224c-0.73914,0 -1.32429,-0.36187 -1.75546,-1.08561c-0.43117,-0.72374 -0.64675,-1.54757 -0.64675,-2.4715c0,-1.01632 0.85463,-1.88635 2.56389,-2.61009c1.70926,-0.72374 3.48782,-1.08561 5.33567,-1.08561c3.54171,0 6.1826,0.86233 7.92266,2.58699c1.74006,1.72466 2.61009,3.88049 2.61009,6.46748v10.99471c0,0.61595 -0.33107,1.13951 -0.99322,1.57067c-0.66215,0.43117 -1.50138,0.64675 -2.5177,0.64675c-0.89313,0 -1.64767,-0.21558 -2.26362,-0.64675c-0.61595,-0.43117 -0.92393,-0.95472 -0.92393,-1.57067v-1.01632c-2.12503,2.4638 -4.46564,3.6957 -7.02183,3.6957c-1.69386,0 -3.10285,-0.52356 -4.22696,-1.57067c-1.12411,-1.04712 -1.68616,-2.57159 -1.68616,-4.57343M171.79915,356.29174c0,1.2935 0.60055,1.94024 1.80165,1.94024c0.76994,0 1.53988,-0.43117 2.30981,-1.2935c0.76994,-0.86233 1.15491,-1.84785 1.15491,-2.95656v-0.18479h-0.18479c-1.01632,0 -1.85555,0.0462 -2.5177,0.13859c-0.66215,0.09239 -1.255,0.33107 -1.77856,0.71604c-0.52356,0.38497 -0.78534,0.93162 -0.78534,1.63997z" data-paper-data="{&quot;elementType&quot;:&quot;letter&quot;,&quot;baseline&quot;:48.2,&quot;baselineProportion&quot;:0.9796747967479675,&quot;fontSize&quot;:100}"></path><path d="M188.19882,360.77278v-17.60077c0,-0.64675 0.33107,-1.17031 0.99322,-1.57067c0.66215,-0.40037 1.51678,-0.60055 2.56389,-0.60055c0.86233,0 1.60147,0.20018 2.21742,0.60055c0.61595,0.40037 0.92393,0.92393 0.92393,1.57067v1.06251c0.49276,-0.98552 1.2858,-1.81705 2.37911,-2.4946c1.09331,-0.67755 2.36371,-1.01632 3.81119,-1.01632c2.12503,0 3.96518,0.95472 5.52045,2.86417c1.55527,1.90945 2.33291,4.18846 2.33291,6.83705v10.34796c0,0.70834 -0.35417,1.255 -1.06251,1.63997c-0.70834,0.38497 -1.55527,0.57745 -2.54079,0.57745c-0.92393,0 -1.74776,-0.20018 -2.4715,-0.60055c-0.72374,-0.40037 -1.08561,-0.93932 -1.08561,-1.61687v-10.34796c0,-0.89313 -0.33107,-1.69386 -0.99322,-2.40221c-0.66215,-0.70834 -1.43978,-1.06251 -2.33291,-1.06251c-0.80074,0 -1.51678,0.31567 -2.14813,0.94702c-0.63135,0.63135 -0.94702,1.47058 -0.94702,2.5177v10.34796c0,0.55436 -0.36187,1.06251 -1.08561,1.52448c-0.72374,0.46196 -1.56297,0.69294 -2.5177,0.69294c-1.01632,0 -1.86325,-0.22328 -2.54079,-0.66985c-0.67755,-0.44656 -1.01632,-0.96242 -1.01632,-1.54757z" data-paper-data="{&quot;elementType&quot;:&quot;letter&quot;,&quot;baseline&quot;:48.2,&quot;baselineProportion&quot;:1,&quot;fontSize&quot;:100}"></path><path d="M211.34314,366.31633c0,-2.03264 1.03172,-3.63411 3.09515,-4.80441c-1.10871,-0.64675 -1.66307,-1.60147 -1.66307,-2.86417c0,-1.35509 0.78534,-2.60239 2.35601,-3.7419c-2.00184,-1.47828 -3.00276,-3.43392 -3.00276,-5.86692v-0.69294c0,-2.24822 0.87003,-4.08067 2.61009,-5.49735c1.74006,-1.41669 4.02677,-2.12503 6.86014,-2.12503c1.94024,0 3.6803,0.36957 5.22018,1.10871c0.52356,-1.2627 0.98552,-2.11733 1.38589,-2.56389c0.40037,-0.44656 0.81613,-0.66985 1.2473,-0.66985c0.80074,0 1.45518,0.23868 1.96334,0.71604c0.50816,0.47736 0.76224,0.94702 0.76224,1.40899c0,0.49276 -0.24638,0.95472 -0.73914,1.38589l-0.92393,0.73914c-0.46196,0.36957 -0.81613,0.67755 -1.06251,0.92393c1.17031,1.2627 1.75546,2.78717 1.75546,4.57343v0.69294c0,2.21742 -0.90083,4.05757 -2.70248,5.52045c-1.80165,1.46288 -4.10377,2.19432 -6.90634,2.19432c-1.01632,0 -1.94024,-0.09239 -2.77178,-0.27718c-0.12319,0.21558 -0.18479,0.41577 -0.18479,0.60055c0,0.43117 0.46966,0.75454 1.40899,0.97012c0.93932,0.21558 2.07883,0.41577 3.41852,0.60055c1.33969,0.18479 2.67938,0.45426 4.01907,0.80843c1.33969,0.35417 2.4792,1.03942 3.41852,2.05573c0.93932,1.01632 1.40899,2.34061 1.40899,3.97288c0,2.5254 -1.01632,4.41174 -3.04895,5.65904c-2.03264,1.2473 -4.49644,1.87095 -7.3914,1.87095c-2.89497,0 -5.37416,-0.60055 -7.4376,-1.80165c-2.06343,-1.2011 -3.09515,-2.83337 -3.09515,-4.8968M219.05792,348.99273c0,1.04712 0.23098,1.90945 0.69294,2.58699c0.46196,0.67755 1.10871,1.01632 1.94024,1.01632c0.80074,0 1.43208,-0.33107 1.89405,-0.99322c0.46196,-0.66215 0.69294,-1.51678 0.69294,-2.56389v-0.69294c0,-0.98552 -0.23098,-1.80935 -0.69294,-2.4715c-0.46196,-0.66215 -1.10871,-0.99322 -1.94024,-0.99322c-0.80074,0 -1.43208,0.33107 -1.89405,0.99322c-0.46196,0.66215 -0.69294,1.48598 -0.69294,2.4715zM218.0878,365.57719c0,0.89313 0.36187,1.60147 1.08561,2.12503c0.72374,0.52356 1.57837,0.78534 2.56389,0.78534c0.98552,0 1.84015,-0.26178 2.56389,-0.78534c0.72374,-0.52356 1.08561,-1.2011 1.08561,-2.03264c0,-0.52356 -0.13859,-0.95472 -0.41577,-1.2935c-0.27718,-0.33877 -0.70064,-0.60825 -1.2704,-0.80843c-0.56975,-0.20018 -1.12411,-0.35417 -1.66307,-0.46196c-0.53896,-0.10779 -1.2396,-0.20788 -2.10193,-0.30028c-1.2319,0.64675 -1.84785,1.57067 -1.84785,2.77178" data-paper-data="{&quot;elementType&quot;:&quot;letter&quot;,&quot;baseline&quot;:52.800000000000004,&quot;baselineProportion&quot;:0.7087248322147651,&quot;fontSize&quot;:100}"></path></g><g data-paper-data="{&quot;baselineProportion&quot;:0.9868073878627969,&quot;fontSize&quot;:100,&quot;baseline&quot;:74.8,&quot;elementType&quot;:&quot;word&quot;}"><path d="M244.35465,360.77278v-29.33462c0,-0.70834 0.35417,-1.255 1.06251,-1.63997c0.70834,-0.38497 1.55527,-0.57745 2.54079,-0.57745c1.38589,0 2.4099,0.20018 3.07205,0.60055c0.66215,0.40037 1.40899,1.40129 2.24052,3.00276l7.48379,14.27464v-15.70673c0,-0.70834 0.35417,-1.2473 1.06251,-1.61687c0.70834,-0.36957 1.55527,-0.55436 2.54079,-0.55436c0.98552,0 1.83245,0.18479 2.54079,0.55436c0.70834,0.36957 1.06251,0.90853 1.06251,1.61687v29.38082c0,0.70834 -0.35417,1.255 -1.06251,1.63997c-0.70834,0.38497 -1.55527,0.57745 -2.54079,0.57745c-1.97104,0 -3.31073,-0.64675 -4.01907,-1.94024l-8.77729,-15.9839v15.70673c0,0.70834 -0.35417,1.255 -1.06251,1.63997c-0.70834,0.38497 -1.55527,0.57745 -2.54079,0.57745c-0.98552,0 -1.83245,-0.19248 -2.54079,-0.57745c-0.70834,-0.38497 -1.06251,-0.93162 -1.06251,-1.63997z" data-paper-data="{&quot;elementType&quot;:&quot;letter&quot;,&quot;baseline&quot;:73.10000000000001,&quot;baselineProportion&quot;:1,&quot;fontSize&quot;:100}"></path><path d="M271.28706,357.30806c0,-2.55619 0.93162,-4.35785 2.79487,-5.40496c1.86325,-1.04712 4.53493,-1.57067 8.01505,-1.57067h1.66307v-0.46196c0,-0.92393 -0.27718,-1.72466 -0.83153,-2.40221c-0.55436,-0.67755 -1.43208,-1.01632 -2.63319,-1.01632c-1.47828,0 -2.69478,0.25408 -3.6495,0.76224c-0.95472,0.50816 -1.53988,0.76224 -1.75546,0.76224c-0.73914,0 -1.32429,-0.36187 -1.75546,-1.08561c-0.43117,-0.72374 -0.64675,-1.54757 -0.64675,-2.4715c0,-1.01632 0.85463,-1.88635 2.56389,-2.61009c1.70926,-0.72374 3.48782,-1.08561 5.33567,-1.08561c3.54171,0 6.1826,0.86233 7.92266,2.58699c1.74006,1.72466 2.61009,3.88049 2.61009,6.46748v10.99471c0,0.61595 -0.33107,1.13951 -0.99322,1.57067c-0.66215,0.43117 -1.50138,0.64675 -2.5177,0.64675c-0.89313,0 -1.64767,-0.21558 -2.26362,-0.64675c-0.61595,-0.43117 -0.92393,-0.95472 -0.92393,-1.57067v-1.01632c-2.12503,2.4638 -4.46564,3.6957 -7.02183,3.6957c-1.69386,0 -3.10285,-0.52356 -4.22696,-1.57067c-1.12411,-1.04712 -1.68616,-2.57159 -1.68616,-4.57343M278.49368,356.29174c0,1.2935 0.60055,1.94024 1.80165,1.94024c0.76994,0 1.53988,-0.43117 2.30981,-1.2935c0.76994,-0.86233 1.15491,-1.84785 1.15491,-2.95656v-0.18479h-0.18479c-1.01632,0 -1.85555,0.0462 -2.5177,0.13859c-0.66215,0.09239 -1.255,0.33107 -1.77856,0.71604c-0.52356,0.38497 -0.78534,0.93162 -0.78534,1.63997z" data-paper-data="{&quot;elementType&quot;:&quot;letter&quot;,&quot;baseline&quot;:48.2,&quot;baselineProportion&quot;:0.9796747967479675,&quot;fontSize&quot;:100}"></path><path d="M294.93955,360.77278v-30.16615c0,-0.64675 0.33107,-1.17031 0.99322,-1.57067c0.66215,-0.40037 1.50138,-0.60055 2.5177,-0.60055c1.04712,0 1.91714,0.20018 2.61009,0.60055c0.69294,0.40037 1.03942,0.92393 1.03942,1.57067v13.62789c0.52356,-0.98552 1.30119,-1.81705 2.33291,-2.4946c1.03172,-0.67755 2.20972,-1.01632 3.53401,-1.01632c2.24822,0 4.17306,0.95472 5.77453,2.86417c1.60147,1.90945 2.40221,4.18846 2.40221,6.83705v3.23374c0,2.58699 -0.80843,4.86601 -2.4253,6.83705c-1.61687,1.97104 -3.48782,2.95656 -5.61284,2.95656c-1.41669,0 -2.72558,-0.36187 -3.92668,-1.08561c-1.2011,-0.72374 -2.04803,-1.59377 -2.54079,-2.61009v1.01632c0,0.55436 -0.31567,1.06251 -0.94702,1.52448c-0.63135,0.46196 -1.37819,0.69294 -2.24052,0.69294c-0.98552,0 -1.81705,-0.22328 -2.4946,-0.66985c-0.67755,-0.44656 -1.01632,-0.96242 -1.01632,-1.54757M302.09996,354.25911c0,0.49276 0.36957,1.10871 1.10871,1.84785c0.73914,0.73914 1.55527,1.10871 2.4484,1.10871c0.89313,0 1.67076,-0.36187 2.33291,-1.08561c0.66215,-0.72374 0.99322,-1.54757 0.99322,-2.4715v-3.23374c0,-0.89313 -0.33107,-1.69386 -0.99322,-2.40221c-0.66215,-0.70834 -1.45518,-1.06251 -2.37911,-1.06251c-0.89313,0 -1.70156,0.32337 -2.4253,0.97012c-0.72374,0.64675 -1.08561,1.47828 -1.08561,2.4946z" data-paper-data="{&quot;elementType&quot;:&quot;letter&quot;,&quot;baseline&quot;:74.8,&quot;baselineProportion&quot;:0.9868073878627969,&quot;fontSize&quot;:100}"></path><path d="M319.51595,360.77278v-17.60077c0,-0.64675 0.33107,-1.17031 0.99322,-1.57067c0.66215,-0.40037 1.51678,-0.60055 2.56389,-0.60055c1.01632,0 1.87095,0.20018 2.56389,0.60055c0.69294,0.40037 1.03942,0.92393 1.03942,1.57067v17.60077c0,0.55436 -0.35417,1.06251 -1.06251,1.52448c-0.70834,0.46196 -1.55527,0.69294 -2.54079,0.69294c-1.01632,0 -1.86325,-0.22328 -2.54079,-0.66985c-0.67755,-0.44656 -1.01632,-0.96242 -1.01632,-1.54757zM320.39368,335.75751c0,0 -0.18479,-0.16554 -0.55436,-0.49661c-0.36957,-0.33107 -0.55436,-0.94317 -0.55436,-1.8363c0,-0.89313 0.36957,-1.66307 1.10871,-2.30981c0.73914,-0.64675 1.63227,-0.97012 2.67938,-0.97012c1.01632,0 1.89405,0.32337 2.63319,0.97012c0.73914,0.64675 1.10871,1.41669 1.10871,2.30981c0,0.89313 -0.36957,1.67076 -1.10871,2.33291c-0.73914,0.66215 -1.61687,0.99322 -2.63319,0.99322c-1.04712,0 -1.94024,-0.33107 -2.67938,-0.99322" data-paper-data="{&quot;elementType&quot;:&quot;letter&quot;,&quot;baseline&quot;:71.10000000000001,&quot;baselineProportion&quot;:1,&quot;fontSize&quot;:100}"></path><path d="M330.78784,360.77278v-17.60077c0,-0.64675 0.33107,-1.17031 0.99322,-1.57067c0.66215,-0.40037 1.51678,-0.60055 2.56389,-0.60055c0.86233,0 1.60147,0.20018 2.21742,0.60055c0.61595,0.40037 0.92393,0.92393 0.92393,1.57067v1.06251c0.49276,-0.98552 1.2858,-1.81705 2.37911,-2.4946c1.09331,-0.67755 2.36371,-1.01632 3.81119,-1.01632c2.12503,0 3.96518,0.95472 5.52045,2.86417c1.55527,1.90945 2.33291,4.18846 2.33291,6.83705v10.34796c0,0.70834 -0.35417,1.255 -1.06251,1.63997c-0.70834,0.38497 -1.55527,0.57745 -2.54079,0.57745c-0.92393,0 -1.74776,-0.20018 -2.4715,-0.60055c-0.72374,-0.40037 -1.08561,-0.93932 -1.08561,-1.61687v-10.34796c0,-0.89313 -0.33107,-1.69386 -0.99322,-2.40221c-0.66215,-0.70834 -1.43978,-1.06251 -2.33291,-1.06251c-0.80074,0 -1.51678,0.31567 -2.14813,0.94702c-0.63135,0.63135 -0.94702,1.47058 -0.94702,2.5177v10.34796c0,0.55436 -0.36187,1.06251 -1.08561,1.52448c-0.72374,0.46196 -1.56297,0.69294 -2.5177,0.69294c-1.01632,0 -1.86325,-0.22328 -2.54079,-0.66985c-0.67755,-0.44656 -1.01632,-0.96242 -1.01632,-1.54757z" data-paper-data="{&quot;elementType&quot;:&quot;letter&quot;,&quot;baseline&quot;:48.2,&quot;baselineProportion&quot;:1,&quot;fontSize&quot;:100}"></path><path d="M354.6713,353.65855v-3.23374c0,-2.64859 0.80074,-4.9276 2.40221,-6.83705c1.60147,-1.90945 3.52631,-2.86417 5.77453,-2.86417c1.32429,0 2.5023,0.33877 3.53401,1.01632c1.03172,0.67755 1.80935,1.50908 2.33291,2.4946v-13.62789c0,-0.64675 0.34647,-1.17031 1.03942,-1.57067c0.69294,-0.40037 1.56297,-0.60055 2.61009,-0.60055c1.01632,0 1.85555,0.20018 2.5177,0.60055c0.66215,0.40037 0.99322,0.92393 0.99322,1.57067v30.16615c0,0.58515 -0.33877,1.10101 -1.01632,1.54757c-0.67755,0.44656 -1.50908,0.66985 -2.4946,0.66985c-0.86233,0 -1.60917,-0.23098 -2.24052,-0.69294c-0.63135,-0.46196 -0.94702,-0.97012 -0.94702,-1.52448v-1.01632c-0.49276,1.01632 -1.33969,1.88635 -2.54079,2.61009c-1.2011,0.72374 -2.51,1.08561 -3.92668,1.08561c-2.12503,0 -3.99598,-0.98552 -5.61284,-2.95656c-1.61687,-1.97104 -2.4253,-4.25006 -2.4253,-6.83705M361.83172,353.65855c0,0.92393 0.33107,1.74776 0.99322,2.4715c0.66215,0.72374 1.43978,1.08561 2.33291,1.08561c0.89313,0 1.70926,-0.36957 2.4484,-1.10871c0.73914,-0.73914 1.10871,-1.35509 1.10871,-1.84785v-3.83429c0,-1.01632 -0.36187,-1.84785 -1.08561,-2.4946c-0.72374,-0.64675 -1.53218,-0.97012 -2.4253,-0.97012c-0.92393,0 -1.71696,0.35417 -2.37911,1.06251c-0.66215,0.70834 -0.99322,1.50908 -0.99322,2.40221z" data-paper-data="{&quot;elementType&quot;:&quot;letter&quot;,&quot;baseline&quot;:74.8,&quot;baselineProportion&quot;:0.9868073878627969,&quot;fontSize&quot;:100}"></path><path d="M380.07924,360.77278v-17.60077c0,-0.64675 0.33107,-1.17031 0.99322,-1.57067c0.66215,-0.40037 1.50138,-0.60055 2.5177,-0.60055c0.89313,0 1.64767,0.20018 2.26362,0.60055c0.61595,0.40037 0.92393,0.92393 0.92393,1.57067v1.70926c0.49276,-1.10871 1.255,-2.07883 2.28671,-2.91036c1.03172,-0.83153 2.10193,-1.2473 3.21064,-1.2473h1.33969c0.67755,0 1.2704,0.30798 1.77856,0.92393c0.50816,0.61595 0.76224,1.33969 0.76224,2.17122c0,0.86233 -0.25408,1.60147 -0.76224,2.21742c-0.50816,0.61595 -1.10101,0.92393 -1.77856,0.92393h-1.33969c-1.32429,0 -2.4946,0.63905 -3.51092,1.91714c-1.01632,1.2781 -1.52448,2.93346 -1.52448,4.9661v6.92944c0,0.55436 -0.36187,1.06251 -1.08561,1.52448c-0.72374,0.46196 -1.57837,0.69294 -2.56389,0.69294c-0.98552,0 -1.81705,-0.22328 -2.4946,-0.66985c-0.67755,-0.44656 -1.01632,-0.96242 -1.01632,-1.54757z" data-paper-data="{&quot;elementType&quot;:&quot;letter&quot;,&quot;baseline&quot;:48.2,&quot;baselineProportion&quot;:1,&quot;fontSize&quot;:100}"></path><path d="M397.03326,357.30806c0,-2.55619 0.93162,-4.35785 2.79487,-5.40496c1.86325,-1.04712 4.53493,-1.57067 8.01505,-1.57067h1.66307v-0.46196c0,-0.92393 -0.27718,-1.72466 -0.83153,-2.40221c-0.55436,-0.67755 -1.43208,-1.01632 -2.63319,-1.01632c-1.47828,0 -2.69478,0.25408 -3.6495,0.76224c-0.95472,0.50816 -1.53988,0.76224 -1.75546,0.76224c-0.73914,0 -1.32429,-0.36187 -1.75546,-1.08561c-0.43117,-0.72374 -0.64675,-1.54757 -0.64675,-2.4715c0,-1.01632 0.85463,-1.88635 2.56389,-2.61009c1.70926,-0.72374 3.48782,-1.08561 5.33567,-1.08561c3.54171,0 6.1826,0.86233 7.92266,2.58699c1.74006,1.72466 2.61009,3.88049 2.61009,6.46748v10.99471c0,0.61595 -0.33107,1.13951 -0.99322,1.57067c-0.66215,0.43117 -1.50138,0.64675 -2.5177,0.64675c-0.89313,0 -1.64767,-0.21558 -2.26362,-0.64675c-0.61595,-0.43117 -0.92393,-0.95472 -0.92393,-1.57067v-1.01632c-2.12503,2.4638 -4.46564,3.6957 -7.02183,3.6957c-1.69386,0 -3.10285,-0.52356 -4.22696,-1.57067c-1.12411,-1.04712 -1.68616,-2.57159 -1.68616,-4.57343M404.23988,356.29174c0,1.2935 0.60055,1.94024 1.80165,1.94024c0.76994,0 1.53988,-0.43117 2.30981,-1.2935c0.76994,-0.86233 1.15491,-1.84785 1.15491,-2.95656v-0.18479h-0.18479c-1.01632,0 -1.85555,0.0462 -2.5177,0.13859c-0.66215,0.09239 -1.255,0.33107 -1.77856,0.71604c-0.52356,0.38497 -0.78534,0.93162 -0.78534,1.63997z" data-paper-data="{&quot;elementType&quot;:&quot;letter&quot;,&quot;baseline&quot;:48.2,&quot;baselineProportion&quot;:0.9796747967479675,&quot;fontSize&quot;:100}"></path></g></g></g></g><g data-paper-data="{&quot;elementType&quot;:&quot;emblem&quot;}" fill="#ffffff" stroke-width="1"><g data-paper-data="{&quot;baselineProportion&quot;:1,&quot;fontSize&quot;:100,&quot;baseline&quot;:73.10000000000001,&quot;elementType&quot;:&quot;word&quot;}"><path d="M116.66667,143.72771c0,-4.52937 0.97058,-8.45213 2.91174,-11.76827c1.94116,-3.31615 4.77201,-4.97422 8.49257,-4.97422h104.82257c3.72055,0 6.55141,1.65807 8.49257,4.97422c1.94116,3.31615 2.91174,7.2389 2.91174,11.76827c0,4.8529 -1.01102,8.93742 -3.03306,12.25356c-2.02204,3.31615 -4.81246,4.97422 -8.37125,4.97422h-33.48499v131.75614c0,3.72055 -1.86028,6.59185 -5.58083,8.61389c-3.72055,2.02204 -8.16904,3.03306 -13.34547,3.03306c-5.17642,0 -9.62491,-1.01102 -13.34547,-3.03306c-3.72055,-2.02204 -5.58083,-4.89334 -5.58083,-8.61389v-131.75614h-33.48499c-3.55879,0 -6.34921,-1.65807 -8.37125,-4.97422c-2.02204,-3.31615 -3.03306,-7.40067 -3.03306,-12.25356z" data-paper-data="{&quot;elementType&quot;:&quot;letter&quot;,&quot;baseline&quot;:73.10000000000001,&quot;baselineProportion&quot;:1,&quot;fontSize&quot;:100}"></path><path d="M259.34183,292.71163v-154.07947c0,-3.72055 1.86028,-6.59185 5.58083,-8.61389c3.72055,-2.02204 8.16904,-3.03306 13.34547,-3.03306c7.27934,0 12.65797,1.05146 16.13588,3.15438c3.47791,2.10292 7.40067,7.36023 11.76827,15.77191l39.30846,74.97725v-82.49924c0,-3.72055 1.86028,-6.55141 5.58083,-8.49257c3.72055,-1.94116 8.16904,-2.91174 13.34547,-2.91174c5.17642,0 9.62491,0.97058 13.34547,2.91174c3.72055,1.94116 5.58083,4.77201 5.58083,8.49257v154.32211c0,3.72055 -1.86028,6.59185 -5.58083,8.61389c-3.72055,2.02204 -8.16904,3.03306 -13.34547,3.03306c-10.35285,0 -17.38955,-3.39703 -21.1101,-10.19108l-46.10252,-83.95511v82.49924c0,3.72055 -1.86028,6.59185 -5.58083,8.61389c-3.72055,2.02204 -8.16904,3.03306 -13.34547,3.03306c-5.17642,0 -9.62491,-1.01102 -13.34547,-3.03306c-3.72055,-2.02204 -5.58083,-4.89334 -5.58083,-8.61389z" data-paper-data="{&quot;elementType&quot;:&quot;letter&quot;,&quot;baseline&quot;:73.10000000000001,&quot;baselineProportion&quot;:1,&quot;fontSize&quot;:100}"></path></g></g></g></svg>